<svg id="autorenew_black_24dp" xmlns="http://www.w3.org/2000/svg" width="20.578" height="20.578" viewBox="0 0 20.578 20.578">
  <path id="Path_1675" data-name="Path 1675" d="M0,0H20.578V20.578H0Z" fill="none"/>
  <path id="Path_1676" data-name="Path 1676" d="M10.859,5.287V7.859l3.43-3.43L10.859,1V3.572a6.847,6.847,0,0,0-5.8,10.512l1.252-1.252a5.033,5.033,0,0,1-.6-2.4A5.148,5.148,0,0,1,10.859,5.287Zm5.8,1.492L15.4,8.031a5.136,5.136,0,0,1-4.544,7.545V13l-3.43,3.43,3.43,3.43V17.291a6.847,6.847,0,0,0,5.8-10.512Z" transform="translate(-0.57 -0.143)" fill="#8d8b8b"/>
</svg>
