<svg xmlns="http://www.w3.org/2000/svg" width="13.559" height="15.066" viewBox="0 0 13.559 15.066">
  <path id="Path_1661" data-name="Path 1661" d="M6.013,8.78H7.52v1.507H6.013ZM16.559,5.013V15.559a1.511,1.511,0,0,1-1.507,1.507H4.507A1.506,1.506,0,0,1,3,15.559L3.008,5.013a1.5,1.5,0,0,1,1.5-1.507H5.26V2H6.766V3.507h6.026V2H14.3V3.507h.753A1.511,1.511,0,0,1,16.559,5.013ZM4.507,6.52H15.053V5.013H4.507Zm10.546,9.04V8.026H4.507v7.533ZM12.04,10.286h1.507V8.78H12.04Zm-3.013,0h1.507V8.78H9.026Z" transform="translate(-3 -2)" fill="#c1c1c1"/>
</svg>
