<svg xmlns="http://www.w3.org/2000/svg" width="141.332" height="141.332" viewBox="0 0 141.332 141.332">
  <g id="no-comment" transform="translate(0)">
    <g id="Group_2908" data-name="Group 2908" transform="translate(0)">
      <path id="Path_1660" data-name="Path 1660" d="M127.53,14.354h-9.825a33.716,33.716,0,0,0-4.059-7C112.358,5.633,107.872,0,104.216,0s-8.142,5.633-9.43,7.359a33.7,33.7,0,0,0-4.059,7H13.8A13.817,13.817,0,0,0,0,28.156v88.332a13.818,13.818,0,0,0,13.8,13.8H60.561l4.516,7.822a6.381,6.381,0,0,0,5.582,3.219h.049a6.477,6.477,0,0,0,5.588-3.279l4.481-7.762H127.53a13.818,13.818,0,0,0,13.8-13.8V28.156a13.817,13.817,0,0,0-13.8-13.8ZM104.216,5.613c2.464,1.276,9.512,9.563,9.512,15.695a9.731,9.731,0,0,1-2.886,6.828,9.308,9.308,0,0,1-6.6,2.781h-.069a9.3,9.3,0,0,1-6.581-2.782A9.73,9.73,0,0,1,94.7,21.308c0-6.131,7.048-14.419,9.512-15.695Zm31.6,110.875a8.291,8.291,0,0,1-8.281,8.281H79.184a2.76,2.76,0,0,0-2.39,1.38l-5.286,9.156-.018.031a.93.93,0,0,1-.821.474.881.881,0,0,1-.812-.462l-5.312-9.2a2.76,2.76,0,0,0-2.39-1.38H13.8a8.291,8.291,0,0,1-8.281-8.281V28.156A8.291,8.291,0,0,1,13.8,19.875H89.258a14.271,14.271,0,0,0-.074,1.433,14.814,14.814,0,0,0,.581,4.088H13.8a2.76,2.76,0,0,0-2.76,2.76v88.332a2.76,2.76,0,0,0,2.76,2.76H58.244a2.76,2.76,0,0,0,0-5.521H16.562V30.916H92.667a15.259,15.259,0,0,0,1.027,1.13,14.768,14.768,0,0,0,10.456,4.391h.112a14.78,14.78,0,0,0,10.477-4.391q.543-.541,1.027-1.13h9v82.812H83.087a2.76,2.76,0,1,0,0,5.521H127.53a2.761,2.761,0,0,0,2.76-2.76V28.156a2.761,2.761,0,0,0-2.76-2.76h-8.863a14.813,14.813,0,0,0,.581-4.088,14.269,14.269,0,0,0-.074-1.433h8.355a8.291,8.291,0,0,1,8.281,8.281Z" transform="translate(0)" fill="#878787"/>
      <path id="Path_1661" data-name="Path 1661" d="M235.628,285.139a15.908,15.908,0,0,0-22.5,0,2.76,2.76,0,1,0,3.9,3.9,10.386,10.386,0,0,1,14.688,0,2.761,2.761,0,0,0,3.9-3.9Z" transform="translate(-153.714 -203.057)" fill="#878787"/>
      <path id="Path_1662" data-name="Path 1662" d="M173.994,207.06a2.761,2.761,0,0,0-3.9,0l-2.189,2.189-2.188-2.188a2.761,2.761,0,1,0-3.9,3.9L164,213.152l-2.188,2.188a2.76,2.76,0,1,0,3.9,3.9l2.188-2.188,2.188,2.188a2.76,2.76,0,0,0,3.9-3.9l-2.188-2.188,2.188-2.188A2.76,2.76,0,0,0,173.994,207.06Z" transform="translate(-116.558 -149.318)" fill="#878787"/>
      <path id="Path_1663" data-name="Path 1663" d="M301.808,219.245a2.76,2.76,0,0,0,3.9,0l2.189-2.189,2.189,2.189a2.76,2.76,0,1,0,3.9-3.9l-2.189-2.188,2.189-2.188a2.761,2.761,0,1,0-3.9-3.9l-2.189,2.189-2.189-2.189a2.761,2.761,0,0,0-3.9,3.9L304,213.152l-2.189,2.188A2.761,2.761,0,0,0,301.808,219.245Z" transform="translate(-217.912 -149.318)" fill="#878787"/>
      <path id="Path_1664" data-name="Path 1664" d="M248.759,412h0a2.76,2.76,0,1,0,2.762,2.76A2.759,2.759,0,0,0,248.757,412Z" transform="translate(-178.093 -298.272)" fill="#878787"/>
    </g>
  </g>
</svg>
