<svg xmlns="http://www.w3.org/2000/svg" width="13.54" height="16.561" viewBox="0 0 13.54 16.561">
  <g id="Voice_2" data-name="Voice 2" transform="translate(0.6 0.6)">
    <path id="Stroke_1" data-name="Stroke 1" d="M0,0A6.169,6.169,0,0,0,6.17,6.17,6.17,6.17,0,0,0,12.34,0" transform="translate(0 6.848)" fill="none" stroke="#f7c623" stroke-linecap="round" stroke-linejoin="round" stroke-miterlimit="10" stroke-width="1.2"/>
    <path id="Stroke_3" data-name="Stroke 3" d="M.476,2.342V0" transform="translate(5.694 13.019)" fill="none" stroke="#f7c623" stroke-linecap="round" stroke-linejoin="round" stroke-miterlimit="10" stroke-width="1.2"/>
    <path id="Stroke_5" data-name="Stroke 5" d="M3.26,9.892H3.05A3.05,3.05,0,0,1,0,6.842V3.05A3.05,3.05,0,0,1,3.05,0h.21A3.05,3.05,0,0,1,6.31,3.05V6.842A3.049,3.049,0,0,1,3.26,9.892Z" transform="translate(3.015)" fill="none" stroke="#f7c623" stroke-linecap="round" stroke-linejoin="round" stroke-miterlimit="10" stroke-width="1.2"/>
    <path id="Stroke_7" data-name="Stroke 7" d="M0,.476H1.586" transform="translate(7.739 2.993)" fill="none" stroke="#f7c623" stroke-linecap="round" stroke-linejoin="round" stroke-miterlimit="10" stroke-width="1.2"/>
    <path id="Stroke_9" data-name="Stroke 9" d="M0,.476H2.379" transform="translate(6.946 5.636)" fill="none" stroke="#f7c623" stroke-linecap="round" stroke-linejoin="round" stroke-miterlimit="10" stroke-width="1.2"/>
  </g>
</svg>
